<svg xmlns="http://www.w3.org/2000/svg" width="29.964" height="30" viewBox="0 0 29.964 30"><g transform="translate(-32 -32)"><path d="M36.495,126.089l2.4-1.6-.359-1.557-1.975,1.185-.551-.919,2.273-1.364-.907-3.932-2.138-6.949,1.024-.315,1.1,3.561V100.944L35.239,102a.539.539,0,0,0-.24.24l-2.943,5.885a.539.539,0,0,0-.057.24v8.6a.538.538,0,0,0,.057.24Z" transform="translate(0 -64.326)" fill="#457b9d"/><path d="M266.857,44.846l1.745,1.4,1.77-3.982-.041-.1-.578-1.445L268.38,42.67Z" transform="translate(-219.124 -8.127)" fill="#457b9d"/><path d="M196.2,44.846l-1.523-2.176L193.3,40.711l-.578,1.445-.041.1,1.77,3.982Z" transform="translate(-149.918 -8.127)" fill="#457b9d"/><path d="M219.684,33.608,220.809,32h-5.444l1.125,1.608Z" transform="translate(-171.082)" fill="#457b9d"/><path d="M134.584,101.314l1.455-4.364v-19.7L134.23,78.7a.536.536,0,0,1-.825-.2l-1.939-4.362L128,75.437V92.689l1.33,5.762A6.983,6.983,0,0,0,134.584,101.314Zm-.689-21.426h1.072v1.072h-1.072Zm0,5.359h1.072V86.32h-1.072Zm0,5.359h1.072v1.072h-1.072Zm0,5.359h1.072v1.072h-1.072Z" transform="translate(-89.569 -39.314)" fill="#457b9d"/><path d="M266.271,78.8a.536.536,0,0,1-.462-.1L264,77.253v19.7l1.455,4.364a6.966,6.966,0,0,0,6.584-6.956V75.437l-3.467-1.3L266.633,78.5A.536.536,0,0,1,266.271,78.8Zm4.16,3.231a.536.536,0,0,1,.536.536V86.32a.536.536,0,0,1-.3.479l-2.144,1.072a.536.536,0,0,1-.479,0L265.9,86.8a.536.536,0,0,1-.3-.479V82.568a.536.536,0,0,1,.536-.536Z" transform="translate(-216.459 -39.314)" fill="#457b9d"/><path d="M405.312,124.652l-.128-1.157-1.838.46-.26-1.04,1.979-.495-2.313-20.813a.537.537,0,0,0-.322-.433L400,100.132V113.2l2.551,12.243Z" transform="translate(-343.348 -63.568)" fill="#457b9d"/><path d="M243.365,72l.846,1.209L245.058,72Z" transform="translate(-197.206 -37.32)" fill="#457b9d"/><path d="M307.215,210.884V208H304v2.884l1.608.8Z" transform="translate(-253.779 -164.21)" fill="#457b9d"/></g></svg>