<svg xmlns="http://www.w3.org/2000/svg" width="31.2" height="24" viewBox="0 0 31.2 24"><g transform="translate(0 -3)"><path d="M30.581,7.937l-5.134-4.7A1.2,1.2,0,0,0,24.732,3H6.456a1.2,1.2,0,0,0-.716.236L.484,8.036A1.173,1.173,0,0,0,0,9v2.4a1.2,1.2,0,0,0,1.2,1.2H30a1.2,1.2,0,0,0,1.2-1.2V9A1.471,1.471,0,0,0,30.581,7.937Z" fill="#457b9d"/><path d="M2.2,25.6A1.2,1.2,0,0,1,1,24.4V10H4.6V24.4a1.2,1.2,0,0,1-1.2,1.2Z" transform="translate(0.2 1.4)" fill="#457b9d"/><path d="M23.2,25.6A1.2,1.2,0,0,1,22,24.4V10h3.6V24.4a1.2,1.2,0,0,1-1.2,1.2Z" transform="translate(4.4 1.4)" fill="#457b9d"/><path d="M20.2,19.2A1.2,1.2,0,0,1,19,18V12h2.4v6a1.2,1.2,0,0,1-1.2,1.2Z" transform="translate(3.8 1.8)" fill="#457b9d"/><path d="M6.2,19.2A1.2,1.2,0,0,1,5,18V12H7.4v6a1.2,1.2,0,0,1-1.2,1.2Z" transform="translate(1 1.8)" fill="#457b9d"/></g></svg>