<svg xmlns="http://www.w3.org/2000/svg" width="30" height="30" viewBox="0 0 30 30"><path d="M29.121,0a.878.878,0,0,0-.879.879v.879H1.758V.879A.879.879,0,0,0,0,.879V4.395a.879.879,0,1,0,1.758,0V3.516h8.848v1.95l-.879.22v4.862h3.516V5.686l-.879-.22V3.516h8.848v1.95l-1.495.374a9.847,9.847,0,0,1,3.176,2.875A4.42,4.42,0,0,0,26.06,6.239l-3.091-.773V3.516h5.273v.879a.879.879,0,1,0,1.758,0V.879A.878.878,0,0,0,29.121,0Z" transform="translate(0)" fill="#457b9d"/><path d="M.879,126.649H2.637V115.164a.879.879,0,1,1,1.758,0v12.363a.879.879,0,0,0,.879.879H7.09a.879.879,0,0,0,.879-.879v-23l-1.854.449a8.065,8.065,0,0,0-3.75,2.123A8.153,8.153,0,0,0,0,112.87v12.9a.879.879,0,0,0,.879.879Z" transform="translate(0 -98.406)" fill="#457b9d"/><path d="M263.09,126.663a.879.879,0,0,0,.879-.879v-12.9a8.153,8.153,0,0,0-2.365-5.766,8.057,8.057,0,0,0-3.75-2.123L256,104.546v23a.879.879,0,0,0,.879.879H258.7a.879.879,0,0,0,.879-.879V115.178a.879.879,0,0,1,1.758,0v11.484Z" transform="translate(-241 -98.42)" fill="#457b9d"/><path d="M166,210h3.516v15.938H166Z" transform="translate(-156.273 -197.695)" fill="#457b9d"/><path d="M410.491,113.888l-.22-.055a6.176,6.176,0,0,1-3.977,3.6,10.044,10.044,0,0,1,.92,4.189v6.689h4.395a.878.878,0,0,0,.879-.879V116.446A2.633,2.633,0,0,0,410.491,113.888Z" transform="translate(-382.488 -107.163)" fill="#457b9d"/></svg>