<svg xmlns="http://www.w3.org/2000/svg" width="30.4" height="30" viewBox="0 0 30.4 30"><g transform="translate(0 -3.359)"><path d="M239.575,250.1H234.35a2.662,2.662,0,0,1-2.055-.959l-1.158,1.958h2.373a2.679,2.679,0,0,1,2.63,3.188l-.13.67q.474.031.952.031a19.662,19.662,0,0,0,7.089-1.752l-2.422-4.095A2.662,2.662,0,0,1,239.575,250.1Z" transform="translate(-217.379 -231.15)" fill="#457b9d"/><path d="M301.21,345.8l-.383,1.979a14.794,14.794,0,0,0,1.677.1,19.045,19.045,0,0,0,8.747-2.759l-.745-1.259a21.427,21.427,0,0,1-8,1.994Q301.854,345.853,301.21,345.8Z" transform="translate(-282.921 -320.232)" fill="#457b9d"/><path d="M296.052,392.565l-1.027-1.736a20.792,20.792,0,0,1-9.656,3.008,16.445,16.445,0,0,1-2.017-.123c-.775,4-.717,3.716-.745,3.82,5.2.889,10.4-.882,13.312-3.863A.9.9,0,0,0,296.052,392.565Z" transform="translate(-265.785 -364.406)" fill="#457b9d"/><path d="M218.762,8.793c.021.17-.165-.335,3.114,7.81a.892.892,0,0,0,.828.56h5.225a.892.892,0,0,0,.828-.56l3.06-7.6a.89.89,0,0,0,.014-.616,3.583,3.583,0,0,0-1.442-1.4V4.252a.893.893,0,1,0-1.786,0V6.5a4.028,4.028,0,0,0-3.287,1.5,4.028,4.028,0,0,0-3.287-1.5V4.252a.893.893,0,0,0-1.786,0V6.991a3.59,3.59,0,0,0-1.442,1.4.884.884,0,0,0-.04.405Z" transform="translate(-205.733)" fill="#457b9d"/><path d="M.016,313.092l1.9,9.841a.893.893,0,0,0,.877.723h1.54c-.008-1.827-.042,2.334,0-11.627H.893a.893.893,0,0,0-.877,1.063Z" transform="translate(0 -290.297)" fill="#457b9d"/><path d="M102.624,447.169H107.4l.017-3.81h-4.81Z" transform="translate(-96.499 -413.809)" fill="#457b9d"/><path d="M102.587,318.061H107.4l-.019-6.032h-4.774Z" transform="translate(-96.481 -290.297)" fill="#457b9d"/><path d="M216.563,312.029h-3.446c.044,14.317.01,9.567,0,11.627h1.54a.893.893,0,0,0,.877-.723l1.9-9.841A.893.893,0,0,0,216.563,312.029Z" transform="translate(-200.431 -290.297)" fill="#457b9d"/><path d="M79.7,222.583a4.2,4.2,0,0,0-7.16,2.967l.021,1.2h1.786l-.022-1.2a2.409,2.409,0,1,1,4.818,0l-.022,1.2H80.9C80.925,225.641,81.148,224.034,79.7,222.583Z" transform="translate(-68.219 -205.02)" fill="#457b9d"/></g></svg>