<svg xmlns="http://www.w3.org/2000/svg" width="36.366" height="30" viewBox="0 0 36.366 30"><g transform="translate(-0.35 -11.5)"><path d="M10.867,20.909a4.709,4.709,0,0,0,.083-1.429l-.7-7.98h-.194a1.68,1.68,0,0,0-1.114.429L.35,19.58l4.8,6.48,3.486-2.5C10.087,22.6,10.627,21.954,10.867,20.909Z" transform="translate(0 0)" fill="#457b9d"/><path d="M54.752,19.751l.877-8.251H54.2a4.483,4.483,0,1,1-8.966,0H44l.857,8.251Z" transform="translate(-31.178 0)" fill="#457b9d"/><path d="M47.247,20.92a4.254,4.254,0,0,1-.131-1.514L47.8,11.5H46.4l-.909,8.571a.286.286,0,0,1-.286.254H34.8a.286.286,0,0,1-.286-.254L33.6,11.5H32.193l.686,7.934a5.223,5.223,0,0,1-.094,1.6c-.269,1.169-.857,1.914-2.34,2.917L30.27,34.109A8.691,8.691,0,0,1,36.153,41.5h7.489a8.719,8.719,0,0,1,5.9-7.414l-.177-10.443a4.469,4.469,0,0,1-2.114-2.723Z" transform="translate(-21.371 0)" fill="#457b9d"/><path d="M91.88,11.5l-.691,7.957a3.714,3.714,0,0,0,.109,1.309,3.991,3.991,0,0,0,2,2.48l.02.017L96.8,26.04l4.789-6.466L93,11.929A1.68,1.68,0,0,0,91.88,11.5Z" transform="translate(-64.872 0)" fill="#457b9d"/></g></svg>