<svg xmlns="http://www.w3.org/2000/svg" width="23.282" height="30" viewBox="0 0 23.282 30"><g transform="translate(-9.853 -2)"><path d="M24.071,12.252c.135-.093.232-.15.282-.177a1.291,1.291,0,0,1,.628-.164,1.258,1.258,0,0,1,.5.1,7.872,7.872,0,0,0,3.01.625,7.57,7.57,0,0,0,2.971-.628,1.286,1.286,0,0,1,1.126.063c.049.027.147.086.283.178l1.963-4.245a.429.429,0,0,0-.206-.566c-1.467-.69-1.574-3.829-1.492-4.983a.419.419,0,0,0-.111-.322A.439.439,0,0,0,32.713,2H31.207a.429.429,0,0,0-.429.429v.433a2.307,2.307,0,1,1-4.614,0V2.429A.429.429,0,0,0,25.736,2H24.231a.439.439,0,0,0-.313.137.419.419,0,0,0-.111.322c.081,1.154-.026,4.292-1.492,4.983a.429.429,0,0,0-.206.566Z" transform="translate(-6.977)" fill="#457b9d"/><path d="M32.875,41.082c-1.424-.613-2.2-3.512-2.389-4.6-1.694-7.23-5.146-9.233-5.292-9.314a.432.432,0,0,0-.377-.021,8.307,8.307,0,0,1-6.651,0,.424.424,0,0,0-.373.021c-.146.081-3.6,2.084-5.3,9.34-.18,1.063-.956,3.962-2.384,4.576a.429.429,0,0,0-.257.339.437.437,0,0,0,.159.39,25.3,25.3,0,0,0,3.18,2.168L15.3,38.393a.429.429,0,0,1,.8.3l-2.15,5.7a18.147,18.147,0,0,0,3.428,1.372l1.5-10.106a.429.429,0,1,1,.848.126L18.217,45.98a14.974,14.974,0,0,0,2.773.36v-6.5a.429.429,0,1,1,.858,0v6.5a14.935,14.935,0,0,0,2.76-.328L23.665,37.4a.429.429,0,1,1,.853-.093l.931,8.5a17.956,17.956,0,0,0,3.46-1.353L26.736,38.7a.429.429,0,1,1,.8-.3l2.133,5.656a25.182,25.182,0,0,0,3.3-2.238.437.437,0,0,0,.159-.39.429.429,0,0,0-.257-.339Z" transform="translate(0 -14.343)" fill="#457b9d"/></g></svg>