<svg xmlns="http://www.w3.org/2000/svg" width="28.073" height="24" viewBox="0 0 28.073 24"><g transform="translate(0 -37.141)"><path d="M119.728,131.9a.248.248,0,0,0-.248.248v1.578h5.188v-1.578a.248.248,0,0,0-.248-.248Z" transform="translate(-112.929 -89.561)" fill="#457b9d"/><path d="M298.153,131.9a.248.248,0,0,0-.248.248v1.578h5.188v-1.578a.248.248,0,0,0-.248-.248h-4.691Z" transform="translate(-281.571 -89.561)" fill="#457b9d"/><path d="M53.4,44.146V42.585a1.912,1.912,0,0,1,1.91-1.91H60a1.912,1.912,0,0,1,1.91,1.91v1.562h1.273V42.585a1.912,1.912,0,0,1,1.91-1.91h4.691a1.912,1.912,0,0,1,1.91,1.91v1.562h1.322a3.775,3.775,0,0,1,.753.076v-5.1a1.985,1.985,0,0,0-1.985-1.985H53.311a1.985,1.985,0,0,0-1.985,1.985v5.1a3.778,3.778,0,0,1,.753-.076Z" transform="translate(-48.512)" fill="#457b9d"/><path d="M27.044,258.811H1.029A1.029,1.029,0,0,0,0,259.84v6.747a1.029,1.029,0,0,0,1.029,1.029H27.044a1.029,1.029,0,0,0,1.029-1.029V259.84A1.029,1.029,0,0,0,27.044,258.811Z" transform="translate(0 -209.516)" fill="#457b9d"/><path d="M49.937,195.206H29a2.112,2.112,0,0,0-2.092,1.826H52.029A2.112,2.112,0,0,0,49.937,195.206Z" transform="translate(-25.432 -149.398)" fill="#457b9d"/><path d="M18.762,449.7v.549a.831.831,0,0,0,1.661,0V449.7H18.762Z" transform="translate(-17.733 -389.939)" fill="#457b9d"/><path d="M462.938,449.7v.549a.831.831,0,1,0,1.661,0V449.7h-1.661Z" transform="translate(-437.555 -389.938)" fill="#457b9d"/></g></svg>