<svg xmlns="http://www.w3.org/2000/svg" width="33.805" height="24.947" viewBox="0 0 33.805 24.947"><g transform="translate(0.001 -58.7)"><g transform="translate(-0.001 58.7)"><g transform="translate(0 0)"><path d="M66.661,67.9a7.8,7.8,0,0,1,.9,1.8,17.6,17.6,0,0,1,.836,5.1h16.1a17.641,17.641,0,0,1,.837-5.1,7.771,7.771,0,0,1,.9-1.794,7.346,7.346,0,0,1,1.806-1.811,8.333,8.333,0,0,1,.791-.51c-1.848-4.111-6.7-6.879-12.379-6.879-5.377,0-10.121,2.854-12.042,7.082.156.1.307.2.453.307A7.416,7.416,0,0,1,66.661,67.9Z" transform="translate(-59.543 -58.7)" fill="#457b9d"/><path d="M33.2,164.824a2.322,2.322,0,0,0-1.211-.587,2.9,2.9,0,0,0-1.258,0,3.471,3.471,0,0,0-1.32.678,5.733,5.733,0,0,0-1.407,1.408,6.377,6.377,0,0,0-.707,1.424,17.12,17.12,0,0,0-.758,5.361.8.8,0,0,1-.8.8H8.063a.8.8,0,0,1-.8-.8,17.271,17.271,0,0,0-.756-5.361,6.424,6.424,0,0,0-.708-1.425,5.754,5.754,0,0,0-1.408-1.408,3.473,3.473,0,0,0-1.321-.678,2.864,2.864,0,0,0-1.256,0,2.329,2.329,0,0,0-1.213.587,2.233,2.233,0,0,0-.577,1.723,2.3,2.3,0,0,0,1.783,1.75,1.524,1.524,0,0,0,.693-.015,1.67,1.67,0,0,1,1.076.068c1.343.607,1.49,2.908.5,7.928.506,1.487,1.144,1.6,1.626,1.659H7.258v2.414a.8.8,0,0,0,.8.8h.8a.8.8,0,0,0,.8-.8v-2.412H24.13v2.414a.8.8,0,0,0,.8.8h.8a.8.8,0,0,0,.8-.8v-2.414h1.561c.483-.056,1.12-.171,1.626-1.659-.991-5.018-.844-7.323.5-7.928a1.667,1.667,0,0,1,1.077-.068A1.556,1.556,0,0,0,32,168.3a2.3,2.3,0,0,0,1.783-1.749A2.24,2.24,0,0,0,33.2,164.824Z" transform="translate(0.001 -156.208)" fill="#457b9d"/></g></g></g></svg>