<svg xmlns="http://www.w3.org/2000/svg" width="34.633" height="40.669" viewBox="0 0 34.633 40.669"><g transform="translate(-0.5 0)"><path d="M33.3,27.159a20.518,20.518,0,0,1-4.914,7.656,25.723,25.723,0,0,1-9.6,5.69,2.938,2.938,0,0,1-.933.165h-.035a2.98,2.98,0,0,1-.573-.056,3.1,3.1,0,0,1-.394-.107,25.721,25.721,0,0,1-9.615-5.687,20.479,20.479,0,0,1-4.913-7.654C.337,21.778.45,15.844.541,11.076l0-.073c.018-.394.03-.807.037-1.264A4.31,4.31,0,0,1,4.638,5.516,16.726,16.726,0,0,0,16.022.717l.027-.025a2.605,2.605,0,0,1,3.537,0l.026.025A16.729,16.729,0,0,0,31,5.516a4.31,4.31,0,0,1,4.059,4.223c.007.46.018.873.037,1.264v.031C35.184,15.811,35.3,21.757,33.3,27.159Zm0,0" transform="translate(0 0)" fill="#00dd80"/><path d="M234.4,27.162a20.518,20.518,0,0,1-4.914,7.656,25.723,25.723,0,0,1-9.6,5.69,2.939,2.939,0,0,1-.933.165V0A2.609,2.609,0,0,1,220.683.7l.026.025a16.729,16.729,0,0,0,11.385,4.8,4.31,4.31,0,0,1,4.059,4.223c.007.46.018.873.037,1.264v.031C236.281,15.814,236.393,21.76,234.4,27.162Zm0,0" transform="translate(-201.097 -0.003)" fill="#00aa63"/><path d="M111.166,138.534a10.148,10.148,0,0,1-10.1,10.136h-.036a10.136,10.136,0,1,1,0-20.272h.036A10.148,10.148,0,0,1,111.166,138.534Zm0,0" transform="translate(-83.214 -118.199)" fill="#fff"/><path d="M229.049,138.534a10.148,10.148,0,0,1-10.1,10.136V128.4A10.148,10.148,0,0,1,229.049,138.534Zm0,0" transform="translate(-201.097 -118.199)" fill="#e1ebf0"/><path d="M163.888,214.017l-4.565,4.566-.986.986a1.194,1.194,0,0,1-1.688,0l-2.121-2.122a1.193,1.193,0,1,1,1.687-1.687l1.278,1.278,4.708-4.708a1.193,1.193,0,0,1,1.687,1.687Zm0,0" transform="translate(-141.471 -195.141)" fill="#b4d2d7"/><path d="M223.514,214.017l-4.565,4.566v-3.376l2.878-2.877a1.193,1.193,0,1,1,1.687,1.687Zm0,0" transform="translate(-201.097 -195.141)" fill="#6fa5aa"/></g></svg>