<svg xmlns="http://www.w3.org/2000/svg" width="56.857" height="56.874" viewBox="0 0 56.857 56.874"><g transform="translate(-0.501)"><path d="M127.851,223.831a3.319,3.319,0,0,0-4.675.394l-7.6,7.807h.008a3.4,3.4,0,0,0-3.259-2.443H99.749a13.283,13.283,0,0,0-5.334-1.11c-5.255,0-9.8,2.548-11.97,7.375l10.042,9.991.019-.015,1.729-1.668a4.439,4.439,0,0,1,3.084-1.246h14.8a8.847,8.847,0,0,0,6.17-2.507l9.955-11.9a3.318,3.318,0,0,0-.394-4.675Zm0,0" transform="translate(-72.841 -198.271)" fill="#fed2a4"/><path d="M220.406,21.1A11.105,11.105,0,1,1,209.3,10,11.105,11.105,0,0,1,220.406,21.1Zm0,0" transform="translate(-175.734 -8.886)" fill="#ffe781"/><path d="M28.093,348.556l-5.378,5.3L10.246,341.29l5.283-5.3a2.222,2.222,0,0,1,3.142,0l9.423,9.423a2.222,2.222,0,0,1,0,3.142Zm0,0" transform="translate(-8.662 -298.09)" fill="#e87288"/><path d="M220.621,332.09a1.111,1.111,0,1,0-1.571,0A1.112,1.112,0,0,0,220.621,332.09Zm0,0" transform="translate(-193.983 -293.515)"/><path d="M188.449,12.216A12.216,12.216,0,1,0,200.665,0,12.23,12.23,0,0,0,188.449,12.216Zm22.21,0a9.995,9.995,0,1,1-9.995-9.994A10.006,10.006,0,0,1,210.66,12.216Zm0,0" transform="translate(-167.07)"/><path d="M13.292,245.28a1.11,1.11,0,0,0,1.567.009l5.384-5.3a3.356,3.356,0,0,0,.791-3.446l1.158-1.117a3.312,3.312,0,0,1,2.312-.934H39.268a9.943,9.943,0,0,0,6.971-2.832c.077-.075-.586.706,10.072-12.032a4.442,4.442,0,0,0-6.76-5.765L43,220.593a4.463,4.463,0,0,0-3.453-1.653H27.162a14.327,14.327,0,0,0-5.561-1.11,13.739,13.739,0,0,0-12.523,7.1,3.317,3.317,0,0,0-2.97.92l-5.283,5.3a1.111,1.111,0,0,0,0,1.566ZM21.6,220.051a12.123,12.123,0,0,1,4.889,1.018,1.108,1.108,0,0,0,.445.093H39.546a2.221,2.221,0,1,1,0,4.442H30.485a1.11,1.11,0,0,0,0,2.221h9.061a4.435,4.435,0,0,0,4.4-5.023c6.339-6.516,7.233-7.432,7.271-7.477a2.221,2.221,0,1,1,3.392,2.87L44.651,230.1a7.733,7.733,0,0,1-5.383,2.165H24.5a5.521,5.521,0,0,0-3.855,1.557l-.944.911-8.7-8.7c2.033-3.815,5.849-5.984,10.595-5.984ZM7.68,227.42a1.108,1.108,0,0,1,1.375-.156c.192.117-.36-.385,9.619,9.579a1.113,1.113,0,0,1,.006,1.565l-4.59,4.522-10.912-11Zm0,0" transform="translate(0 -188.734)"/><path d="M267.83,41.135V42.4a3.331,3.331,0,0,0,1.09,6.472,1.13,1.13,0,0,1,1.123.982,1.112,1.112,0,0,1-1.1,1.239,2,2,0,0,1-1.425-.82,1.132,1.132,0,0,0-1.429-.264,1.112,1.112,0,0,0-.288,1.673,4.606,4.606,0,0,0,2.032,1.446v1.261a1.134,1.134,0,0,0,.946,1.133,1.111,1.111,0,0,0,1.275-1.1v-1.3a3.331,3.331,0,0,0-1.09-6.472,1.13,1.13,0,0,1-1.123-.982,1.112,1.112,0,0,1,1.1-1.239,1.761,1.761,0,0,1,1.175.555,1.14,1.14,0,0,0,1.454.125,1.111,1.111,0,0,0,.118-1.7,4.29,4.29,0,0,0-1.635-1.022V41.1a1.111,1.111,0,0,0-1.275-1.1A1.133,1.133,0,0,0,267.83,41.135Zm0,0" transform="translate(-235.595 -35.548)"/></g></svg>