<svg xmlns="http://www.w3.org/2000/svg" width="47.901" height="56.547" viewBox="0 0 47.901 56.547"><g transform="translate(0 0)"><path d="M9.558,211.184a.852.852,0,0,1-.625-.272l-7.79-8.376A4.253,4.253,0,0,1,0,199.631v-2.27a.853.853,0,0,1,1.707,0v2.27a2.552,2.552,0,0,0,.686,1.744l7.79,8.375a.853.853,0,0,1-.624,1.434Zm0,0" transform="translate(0 -174.805)" fill="#515759"/><path d="M341.334,206.524a.853.853,0,0,1-.629-1.43l7.691-8.379a2.553,2.553,0,0,0,.674-1.731v-2.862a.853.853,0,1,1,1.706,0v2.862a4.256,4.256,0,0,1-1.123,2.885l-7.691,8.379A.851.851,0,0,1,341.334,206.524Zm0,0" transform="translate(-302.877 -170.145)" fill="#515759"/><path d="M105.824,318.324A2.276,2.276,0,0,1,108.1,320.6v16.839a2.275,2.275,0,0,1-2.275,2.275H79.541a2.276,2.276,0,0,1-2.276-2.275V320.6a2.276,2.276,0,0,1,2.276-2.276Zm0,0" transform="translate(-68.732 -283.167)" fill="#ffd47d"/><path d="M177.828,313.453H170.66a1.707,1.707,0,0,1-1.707-1.707v-7.737a1.138,1.138,0,0,1,1.138-1.138H178.4a1.138,1.138,0,0,1,1.138,1.138v7.737a1.707,1.707,0,0,1-1.707,1.707Zm0,0" transform="translate(-150.294 -269.421)" fill="#edaf54"/><path d="M106.024,475.074h-4.21a.853.853,0,1,1,0-1.707h4.21a.853.853,0,1,1,0,1.707Zm0,0" transform="translate(-89.811 -421.087)" fill="#aa8452"/><path d="M103.976,444.171h-2.162a.853.853,0,1,1,0-1.706h2.162a.853.853,0,1,1,0,1.706Zm0,0" transform="translate(-89.811 -393.598)" fill="#aa8452"/><path d="M285,453.6H282.38a1.138,1.138,0,0,1-1.138-1.138v-1.138a1.138,1.138,0,0,1,1.138-1.138H285a1.138,1.138,0,0,1,1.138,1.138v1.138A1.138,1.138,0,0,1,285,453.6Zm0,0" transform="translate(-250.181 -400.468)" fill="#fff7e6"/><path d="M23.957,0V.01C16.5,3.747,11.385,13.849,11.385,22.755v3.356C11.369,22.986,8.828,21.02,5.7,21.02S.007,23,.007,26.14V22.755A22.755,22.755,0,0,1,22.763,0Zm0,0" transform="translate(-0.007)" fill="#f66"/><path d="M240.809,22.755V26.14c0-3.141-2.547-5.12-5.689-5.12s-5.673,1.966-5.689,5.092V22.755c0-8.906-5.118-19.008-12.572-22.745V0h1.195a22.755,22.755,0,0,1,22.755,22.755Zm0,0" transform="translate(-192.909 0)" fill="#e8e8e8"/><path d="M115.6.094V26.2c0-3.471-2.815-5.148-6.286-5.148s-6.286,1.677-6.286,5.148V22.839c0-8.906,5.118-19.008,12.572-22.745Zm0,0" transform="translate(-91.645 -0.084)" fill="#e8e8e8"/><path d="M229.431,22.838v3.356c0-3.471-2.815-5.149-6.286-5.149a7.406,7.406,0,0,0-4.445,1.272,4.617,4.617,0,0,0-1.841,3.876V.094c7.455,3.737,12.572,13.839,12.572,22.745Zm0,0" transform="translate(-192.908 -0.084)" fill="#f66"/><path d="M310.626,320.6v16.839a2.275,2.275,0,0,1-2.275,2.275h-3.413a2.275,2.275,0,0,0,2.275-2.275V320.6a2.275,2.275,0,0,0-2.275-2.276h3.413A2.275,2.275,0,0,1,310.626,320.6Zm0,0" transform="translate(-271.259 -283.168)" fill="#e89e46"/><path d="M223.522,304.009v7.737a1.707,1.707,0,0,1-1.707,1.707H218.4a1.707,1.707,0,0,0,1.707-1.707v-7.737a1.139,1.139,0,0,0-1.138-1.138h3.413a1.138,1.138,0,0,1,1.138,1.138Zm0,0" transform="translate(-194.282 -269.421)" fill="#db8733"/><path d="M240.809,22.755V26.14a4.9,4.9,0,0,0-3.454-4.755A22.759,22.759,0,0,0,217.094.131c-.077-.041-.156-.081-.234-.12V0h1.195a22.755,22.755,0,0,1,22.755,22.755Zm0,0" transform="translate(-192.909 0)" fill="#ccc"/></g></svg>