<svg xmlns="http://www.w3.org/2000/svg" width="171.757" height="148.534" viewBox="0 0 171.757 148.534"><g transform="translate(-269.622 -1769.232)" opacity="0.2"><g transform="translate(282 1798)" fill="none" stroke="#e76f51" stroke-width="2"><ellipse cx="73.5" cy="45.499" rx="73.5" ry="45.499" stroke="none"/><ellipse cx="73.5" cy="45.499" rx="72.5" ry="44.499" fill="none"/></g><g transform="matrix(0.921, -0.391, 0.391, 0.921, 265.767, 1823.383)" fill="none"><path d="M71.971,3.6c39.748,1.99,73.211,25.978,74.74,53.579s-29.453,48.363-69.2,46.374S4.3,77.577,2.769,49.976,32.222,1.613,71.971,3.6Z" stroke="none"/><path d="M 66.72879028320312 5.470573425292969 C 61.24046325683594 5.470573425292969 55.83900451660156 5.921234130859375 50.67444610595703 6.810012817382812 C 45.65294647216797 7.674186706542969 40.83290863037109 8.95587158203125 36.34819030761719 10.61946868896484 C 31.94456481933594 12.25299072265625 27.85708618164062 14.25698852539062 24.19931030273438 16.57582855224609 C 20.56877136230469 18.87738800048828 17.3603515625 21.48983001708984 14.66314697265625 24.34060668945312 C 7.672607421875 31.72923278808594 4.250259399414062 40.55561065673828 4.766128540039062 49.86553192138672 C 5.120529174804688 56.26163101196289 7.27972412109375 62.5743522644043 11.18374633789062 68.62837219238281 C 13.07838439941406 71.56645202636719 15.38417053222656 74.42790985107422 18.0369873046875 77.13330841064453 C 20.67758178710938 79.82621002197266 23.68386840820312 82.38693237304688 26.97234344482422 84.74430847167969 C 33.67564392089844 89.54969024658203 41.39574432373047 93.44789123535156 49.91816711425781 96.33062744140625 C 58.76080322265625 99.32167053222656 68.07742309570312 101.0801696777344 77.60924530029297 101.5572738647461 C 79.32392883300781 101.6430892944336 81.05398559570312 101.6866073608398 82.7513427734375 101.6866073608398 C 88.23966979980469 101.6866073608398 93.64112854003906 101.2359466552734 98.80568695068359 100.3471527099609 C 103.8271636962891 99.48298645019531 108.6472320556641 98.2012939453125 113.1319427490234 96.53771209716797 C 117.5355682373047 94.90419006347656 121.623046875 92.90019226074219 125.2808227539062 90.58135223388672 C 128.9113616943359 88.27979278564453 132.1197814941406 85.66732788085938 134.8169860839844 82.81655120849609 C 141.8075256347656 75.42793273925781 145.2298736572266 66.60157012939453 144.7139892578125 57.29164886474609 C 144.3595886230469 50.89554977416992 142.2003936767578 44.58282852172852 138.29638671875 38.52880859375 C 136.4017333984375 35.59072875976562 134.0959625244141 32.72927093505859 131.4431304931641 30.02387237548828 C 128.8025512695312 27.33097076416016 125.7962493896484 24.77024841308594 122.5077819824219 22.41287231445312 C 115.8044662475586 17.60749053955078 108.0843811035156 13.70928955078125 99.56195068359375 10.82655334472656 C 90.71932983398438 7.83551025390625 81.4027099609375 6.077011108398438 71.87088775634766 5.599906921386719 C 70.15620422363281 5.514091491699219 68.4261474609375 5.470573425292969 66.72879028320312 5.470573425292969 M 66.72879028320312 3.470565795898438 C 68.458251953125 3.470565795898438 70.20470428466797 3.514007568359375 71.97086334228516 3.602409362792969 C 111.7192687988281 5.591972351074219 145.1815490722656 29.57991027832031 146.7109222412109 57.18099212646484 C 148.2403259277344 84.78207397460938 117.257453918457 105.5443267822266 77.50926971435547 103.5547714233398 C 37.76084899902344 101.5652084350586 4.298583984375 77.5772705078125 2.769180297851562 49.97618865966797 C 1.307769775390625 23.60150909423828 29.53570556640625 3.470565795898438 66.72879028320312 3.470565795898438 Z" stroke="none" fill="#e76f51"/></g></g></svg>