<svg xmlns="http://www.w3.org/2000/svg" width="56.547" height="56.547" viewBox="0 0 56.547 56.547"><g transform="translate(0)"><path d="M55.321,32.262,51.572,17.268a5.025,5.025,0,0,0-3.608-3.608L32.97,9.912a4.992,4.992,0,0,0-4.733,1.312L1.459,38a4.963,4.963,0,0,0,0,7.029L20.2,63.774a4.963,4.963,0,0,0,7.029,0L54.009,37A4.992,4.992,0,0,0,55.321,32.262ZM36.6,28.631a4.97,4.97,0,1,1,7.029,0A4.963,4.963,0,0,1,36.6,28.631Z" transform="translate(0 -8.685)" fill="#ff6c6c"/><path d="M141.236,78.946l-26.779,26.779a4.963,4.963,0,0,1-7.029,0l-9.371-9.371,25.771-25.771a4.97,4.97,0,1,0,7.029-7.029l6.63-6.63a5.009,5.009,0,0,1,1.312,2.3l3.749,14.994A4.991,4.991,0,0,1,141.236,78.946Z" transform="translate(-87.227 -50.636)" fill="#ff4949"/><path d="M171.2,175.919a4.97,4.97,0,1,1,7.029,0A4.976,4.976,0,0,1,171.2,175.919Zm4.686-4.686a1.657,1.657,0,1,0,0,2.343A1.658,1.658,0,0,0,175.891,171.233Z" transform="translate(-151.003 -148.945)" fill="#ffe470"/><path d="M192.418,324.411a4.97,4.97,0,1,1,7.029,0A4.976,4.976,0,0,1,192.418,324.411Zm4.686-4.686a1.657,1.657,0,1,0,0,2.343A1.658,1.658,0,0,0,197.1,319.726Z" transform="translate(-169.874 -281.037)" fill="#ffd400"/><path d="M137.835,264.381l-12.6,1.406-8.481.937a1.583,1.583,0,0,1-1.359-.469,1.691,1.691,0,0,1-.469-.984,1.642,1.642,0,0,1,1.453-1.828l12.6-1.406,8.481-.937a1.651,1.651,0,0,1,.375,3.28Z" transform="translate(-102.218 -232.253)" fill="#ffe470"/><path d="M220.972,264.38l-12.6,1.406,3.749-3.749,8.481-.937a1.651,1.651,0,1,1,.375,3.28Z" transform="translate(-185.354 -232.252)" fill="#ffd400"/><path d="M384.635,2.835,372.21,15.26a1.657,1.657,0,0,1-2.343-2.343L382.292.492a1.641,1.641,0,0,1,2.343,0A1.641,1.641,0,0,1,384.635,2.835Z" transform="translate(-328.58 0)" fill="#3e5959"/><path d="M373.829,19.223,388.6,4.455a1.64,1.64,0,0,1,0,2.343L376.172,19.223A1.641,1.641,0,0,1,373.829,19.223Z" transform="translate(-332.542 -3.963)" fill="#384949"/></g></svg>