<svg xmlns="http://www.w3.org/2000/svg" width="45.692" height="33.401" viewBox="0 0 45.692 33.401"><g transform="translate(0 -68.868)"><path d="M110.774,256.028c4.453.006,4.349,4.462,7.916,4.462-.236,2.756-.785,7.139-.785,7.139H81l.692-7.14H106.3l.388-4.461h4.082Z" transform="translate(-73.775 -170.457)" fill="#ccd1d9"/><path d="M465.356,293.654l-.868,8.244h2.678s.549-4.384.785-7.139a3.55,3.55,0,0,1-2.595-1.1Z" transform="translate(-423.035 -204.725)" fill="#aab2bc"/><g transform="translate(10.835 92.745)"><path d="M125.83,336.418a4.427,4.427,0,1,1-4.426,4.427A4.427,4.427,0,0,1,125.83,336.418Z" transform="translate(-121.404 -336.418)" fill="#656d78"/><path d="M359.316,336.418a4.427,4.427,0,1,1-4.426,4.427A4.427,4.427,0,0,1,359.316,336.418Z" transform="translate(-334.053 -336.418)" fill="#656d78"/></g><g transform="translate(13.476 95.387)"><path d="M152.789,366.028A1.785,1.785,0,1,1,151,367.813,1.784,1.784,0,0,1,152.789,366.028Z" transform="translate(-151.004 -366.028)" fill="#ccd1d9"/><path d="M386.275,366.028a1.785,1.785,0,1,1-1.785,1.785A1.784,1.784,0,0,1,386.275,366.028Z" transform="translate(-363.653 -366.028)" fill="#ccd1d9"/></g><path d="M373.4,196.042c-.156-.01-.314-.014-.473-.014h-3.607l-.467,5.355h4.082c4.453.006,4.349,4.462,7.916,4.462.066-.761.108-1.4.108-1.785A8.026,8.026,0,0,0,373.4,196.042Z" transform="translate(-335.933 -115.812)" fill="#5d9cec"/><path d="M387.648,196.042c-.156-.01-.314-.014-.473-.014H384.5c.159,0,.317,0,.473.014a8.026,8.026,0,0,1,7.559,8.018c0,.178-.009.409-.025.681a3.549,3.549,0,0,0,2.595,1.1c.066-.761.108-1.4.108-1.785A8.026,8.026,0,0,0,387.648,196.042Z" transform="translate(-350.183 -115.812)" fill="#4a89dc"/><path d="M90.224,81.692l.516-5.324h24.408l-.93,10.679-.467,5.355-.388,4.461H88.754l.518-5.354Z" transform="translate(-80.833 -6.831)" fill="#ed5565"/><path d="M336.282,76.368l-.93,10.679-.467,5.355-.388,4.461h2.678l.388-4.461.467-5.355.93-10.679Z" transform="translate(-304.645 -6.831)" fill="#da4453"/><path d="M44.677,97.558l.009-.013c.011-.016.021-.033.031-.05l0,0c.01-.019.019-.038.028-.057l.006-.017c.005-.014.011-.028.015-.042s.005-.019.008-.028.006-.022.009-.034,0-.02.005-.031,0-.018,0-.027c.028-.227.553-4.432.787-7.152V90.1c.067-.784.111-1.444.111-1.848a8.711,8.711,0,0,0-8.7-8.7H34.115l.867-9.951c0-.018,0-.036,0-.054,0,0,0,0,0,0h0a.669.669,0,0,0-.4-.613l-.006,0-.046-.017-.017-.006-.039-.01-.027-.007-.035-.005-.033,0H20.616a.669.669,0,1,0,0,1.339H33.584L32.252,85.5v0l-.336,3.859H8.658l.389-4.016h4.428a.669.669,0,0,0,0-1.339h-4.3L10,75.531h7.048a.669.669,0,1,0,0-1.339H10.128l.386-3.986h7.424a.669.669,0,0,0,0-1.339H9.906a.669.669,0,0,0-.653.528l0,.007c0,.017-.006.034-.008.051s0,.011,0,.016v0l-.457,4.72H.669a.669.669,0,1,0,0,1.339H8.653l-.821,8.478H5.444a.669.669,0,0,0,0,1.339H7.7l-.447,4.616v0L6.563,97.1v0c0,.009,0,.018,0,.028s0,.024,0,.037v0c0,.017,0,.034,0,.051s0,.011,0,.016,0,.034.008.051,0,.01,0,.015.006.025.01.038,0,.018.007.027l0,.007a.669.669,0,0,0,.159.262l0,0,.022.02a.663.663,0,0,0,.155.106l.036.017.011,0,.051.019h0l.06.015H7.1l.059.009h0q.033,0,.065,0H10.21a5.095,5.095,0,0,0,10.1,0H31.048a5.095,5.095,0,0,0,10.1,0h2.982c.022,0,.044,0,.066,0l.012,0,.052-.008.022-.005.039-.01.026-.009.033-.012.027-.012.029-.014.027-.014.027-.017.025-.017.027-.02.022-.018.027-.024.018-.018.027-.03.014-.016C44.659,97.583,44.668,97.57,44.677,97.558Zm-.323-9.31c0,.251-.019.615-.051,1.054a4.38,4.38,0,0,1-2.348-1.754,6.286,6.286,0,0,0-4.229-2.607l.346-3.976A7.374,7.374,0,0,1,44.354,88.248Zm-7.618-7.363-.35,4.016H33.648L34,80.885ZM32.529,90.7h0a.655.655,0,0,0,.067,0l.012,0,.052-.008.022-.005.04-.01.026-.009.033-.012.027-.012.029-.014.027-.015.027-.017.025-.017.026-.019.023-.019.025-.023.02-.02.023-.026.018-.021.021-.029.015-.022.019-.031.013-.024c.006-.011.01-.021.016-.032l.012-.026c0-.011.008-.021.012-.032s.007-.019.01-.029.005-.021.008-.032.005-.021.007-.032,0-.021,0-.032,0-.022,0-.033v0l.335-3.851h3.459c2.051,0,2.976,1.063,3.955,2.188a5.492,5.492,0,0,0,3.243,2.217c-.195,2.059-.509,4.7-.65,5.859H41.15a5.095,5.095,0,0,0-10.1,0H20.312a5.095,5.095,0,0,0-10.1,0H7.966l.562-5.8h24ZM15.261,100.93a3.758,3.758,0,1,1,3.758-3.758A3.762,3.762,0,0,1,15.261,100.93Zm20.837,0a3.758,3.758,0,1,1,3.758-3.758A3.762,3.762,0,0,1,36.1,100.93Z"/><path d="M145.962,358.524a2.454,2.454,0,1,0,2.454,2.454A2.457,2.457,0,0,0,145.962,358.524Zm0,3.57a1.116,1.116,0,1,1,1.116-1.116A1.117,1.117,0,0,1,145.962,362.094Z" transform="translate(-130.701 -263.806)"/><path d="M379.45,358.524a2.454,2.454,0,1,0,2.454,2.454A2.457,2.457,0,0,0,379.45,358.524Zm0,3.57a1.116,1.116,0,1,1,1.116-1.116A1.117,1.117,0,0,1,379.45,362.094Z" transform="translate(-343.352 -263.806)"/><path d="M31.445,189.2a.669.669,0,0,0-.669-.669H27.5a.669.669,0,1,0,0,1.339h3.272A.669.669,0,0,0,31.445,189.2Z" transform="translate(-24.439 -108.98)"/></g></svg>